<svg width="70" height="70" viewBox="0 0 70 70" fill="none" xmlns="http://www.w3.org/2000/svg">
<g id="icon home">
<path id="Vector" d="M36.0238 13.8469C35.8203 13.6522 35.5495 13.5435 35.2678 13.5435C34.9861 13.5435 34.7153 13.6522 34.5117 13.8469L9.3418 37.8916C9.2349 37.9939 9.14986 38.1167 9.09182 38.2528C9.03377 38.3889 9.00393 38.5353 9.0041 38.6832L9 61.25C9 62.4103 9.46094 63.5231 10.2814 64.3436C11.1019 65.1641 12.2147 65.625 13.375 65.625H26.5137C27.0938 65.625 27.6502 65.3945 28.0605 64.9843C28.4707 64.5741 28.7012 64.0177 28.7012 63.4375V44.8438C28.7012 44.5537 28.8164 44.2755 29.0215 44.0704C29.2266 43.8652 29.5048 43.75 29.7949 43.75H40.7324C41.0225 43.75 41.3007 43.8652 41.5058 44.0704C41.7109 44.2755 41.8262 44.5537 41.8262 44.8438V63.4375C41.8262 64.0177 42.0566 64.5741 42.4669 64.9843C42.8771 65.3945 43.4335 65.625 44.0137 65.625H57.1469C58.3072 65.625 59.42 65.1641 60.2405 64.3436C61.0609 63.5231 61.5219 62.4103 61.5219 61.25V38.6832C61.522 38.5353 61.4922 38.3889 61.4342 38.2528C61.3761 38.1167 61.2911 37.9939 61.1842 37.8916L36.0238 13.8469Z" fill="#8F00FF"/>
<path id="Vector_2" d="M66.9292 33.3799L56.7026 23.5963V8.75C56.7026 8.16984 56.4721 7.61344 56.0619 7.2032C55.6516 6.79297 55.0952 6.5625 54.5151 6.5625H47.9526C47.3724 6.5625 46.816 6.79297 46.4058 7.2032C45.9956 7.61344 45.7651 8.16984 45.7651 8.75V13.125L37.8463 5.55352C37.1053 4.8043 36.0034 4.375 34.8126 4.375C33.6258 4.375 32.5266 4.8043 31.7856 5.55488L2.70552 33.3772C1.85513 34.1975 1.74849 35.5469 2.52232 36.4356C2.71664 36.6599 2.95457 36.8423 3.22163 36.9717C3.48869 37.1012 3.7793 37.1749 4.07577 37.1885C4.37224 37.202 4.66836 37.1551 4.94613 37.0506C5.22389 36.9461 5.47748 36.7861 5.69146 36.5805L34.0606 9.47188C34.2641 9.27716 34.535 9.16849 34.8167 9.16849C35.0983 9.16849 35.3692 9.27716 35.5727 9.47188L63.9446 36.5805C64.3625 36.9813 64.9223 37.2 65.5013 37.1887C66.0802 37.1774 66.6311 36.9371 67.0331 36.5203C67.8725 35.6508 67.8028 34.2152 66.9292 33.3799Z" fill="#8F00FF"/>
</g>
</svg>
