<svg width="55" height="50" viewBox="0 0 55 50" fill="none" xmlns="http://www.w3.org/2000/svg">
<g id="iconoir:air-conditioner" clip-path="url(#clip0_22_544)">
<path id="Vector" d="M22.5101 28.9583V43.5417M45.0203 6.25V21.6667H-6.10352e-05V6.25C-6.10352e-05 5.91848 0.142235 5.60054 0.395523 5.36612C0.648812 5.1317 0.992344 5 1.35055 5H43.6697C44.0279 5 44.3714 5.1317 44.6247 5.36612C44.878 5.60054 45.0203 5.91848 45.0203 6.25V6.25ZM36.0162 13.3333H38.2672H36.0162ZM-6.10352e-05 21.6667L1.77824 27.05C2.05977 27.9034 2.6299 28.6507 3.4047 29.1817C4.1795 29.7128 5.11804 29.9996 6.08218 30H9.004L-6.10352e-05 21.6667ZM45.0203 21.6667L43.242 27.05C42.9604 27.9034 42.3903 28.6507 41.6155 29.1817C40.8407 29.7128 39.9022 29.9996 38.938 30H36.0162L45.0203 21.6667ZM16.8826 28.9583C16.8826 28.9583 16.8826 43.5417 9.004 43.5417L16.8826 28.9583ZM28.1376 28.9583C28.1376 28.9583 28.1376 43.5417 36.0162 43.5417L28.1376 28.9583Z" stroke="#09006E" stroke-width="3.125" stroke-linecap="round" stroke-linejoin="round"/>
</g>
<defs>
<clipPath id="clip0_22_544">
<rect width="54.0244" height="50" fill="white" transform="translate(0.760986)"/>
</clipPath>
</defs>
</svg>
