<svg width="75" height="75" viewBox="0 0 75 75" fill="none" xmlns="http://www.w3.org/2000/svg">
<g id="Icon">
<circle id="Ellipse 108" cx="37.5" cy="37.5" r="7.375" stroke="#00B2FF" stroke-width="4"/>
<path id="Vector 166" d="M37.5 28.125V18.75M37.5 9.375V18.75M37.5 18.75L28.125 12.5M37.5 18.75L46.875 12.5" stroke="#00B2FF" stroke-width="4" stroke-linecap="round"/>
<path id="Vector 168" d="M46.875 37.5L56.25 37.5M65.625 37.5L56.25 37.5M56.25 37.5L62.5 28.125M56.25 37.5L62.5 46.875" stroke="#00B2FF" stroke-width="4" stroke-linecap="round"/>
<path id="Vector 167" d="M37.5 46.875V56.25M37.5 65.625V56.25M37.5 56.25L28.125 62.5M37.5 56.25L46.875 62.5" stroke="#00B2FF" stroke-width="4" stroke-linecap="round"/>
<path id="Vector 169" d="M28.125 37.5L18.75 37.5M9.375 37.5L18.75 37.5M18.75 37.5L12.5 28.125M18.75 37.5L12.5 46.875" stroke="#00B2FF" stroke-width="4" stroke-linecap="round"/>
</g>
</svg>
