<svg width="64" height="64" viewBox="0 0 64 64" fill="none" xmlns="http://www.w3.org/2000/svg">
<g id="Icon">
<circle id="Ellipse 108" cx="31.8559" cy="31.951" r="6.21065" stroke="#00B2FF" stroke-width="3.36849"/>
<path id="Vector 166" d="M31.8559 24.0561V16.1612M31.8559 8.2663V16.1612M31.8559 16.1612L23.961 10.8979M31.8559 16.1612L39.7508 10.8979" stroke="#00B2FF" stroke-width="3.36849" stroke-linecap="round"/>
<path id="Vector 168" d="M39.7508 31.951L47.6457 31.951M55.5406 31.951L47.6457 31.951M47.6457 31.951L52.909 24.0561M47.6457 31.951L52.909 39.8459" stroke="#00B2FF" stroke-width="3.36849" stroke-linecap="round"/>
<path id="Vector 167" d="M31.8559 39.8459V47.7408M31.8559 55.6357V47.7408M31.8559 47.7408L23.961 53.004M31.8559 47.7408L39.7508 53.004" stroke="#00B2FF" stroke-width="3.36849" stroke-linecap="round"/>
<path id="Vector 169" d="M23.961 31.951L16.0661 31.951M8.17125 31.951L16.0661 31.951M16.0661 31.951L10.8029 24.0561M16.0661 31.951L10.8029 39.8459" stroke="#00B2FF" stroke-width="3.36849" stroke-linecap="round"/>
</g>
</svg>
