<svg width="131" height="99" viewBox="0 0 131 99" fill="none" xmlns="http://www.w3.org/2000/svg">
<g id="Illustrator">
<g id="Subtract" filter="url(#filter0_i_99_136)">
<path fill-rule="evenodd" clip-rule="evenodd" d="M107.511 65.3149C121.119 61.087 131 48.4007 131 33.4074C131 14.957 116.037 0 97.5788 0C79.1206 0 64.1572 14.957 64.1572 33.4074C64.1572 48.4007 74.0384 61.087 87.6465 65.3149H107.511Z" fill="#FFE593"/>
</g>
<g id="Union" filter="url(#filter1_i_99_136)">
<path fill-rule="evenodd" clip-rule="evenodd" d="M49.8217 98.9352C49.8217 98.8974 49.7896 98.8677 49.752 98.8705C48.6002 98.9563 47.4368 99 46.263 99C20.7127 99 0 78.2961 0 52.7566C0 27.217 20.7127 6.51315 46.263 6.51315C66.4758 6.51315 83.661 19.4703 89.959 37.5283C90.7608 39.8272 91.1617 40.9766 91.9419 41.5308C92.7222 42.085 93.8266 42.085 96.0355 42.085H99.6555C115.372 42.085 128.113 54.8259 128.113 70.5425C128.113 86.2592 115.372 99 99.6555 99H49.8866C49.8508 99 49.8217 98.971 49.8217 98.9352V98.9352Z" fill="#EBF3FC"/>
</g>
</g>
<defs>
<filter id="filter0_i_99_136" x="64.1572" y="0" width="66.8428" height="69.3149" filterUnits="userSpaceOnUse" color-interpolation-filters="sRGB">
<feFlood flood-opacity="0" result="BackgroundImageFix"/>
<feBlend mode="normal" in="SourceGraphic" in2="BackgroundImageFix" result="shape"/>
<feColorMatrix in="SourceAlpha" type="matrix" values="0 0 0 0 0 0 0 0 0 0 0 0 0 0 0 0 0 0 127 0" result="hardAlpha"/>
<feOffset dy="4"/>
<feGaussianBlur stdDeviation="25"/>
<feComposite in2="hardAlpha" operator="arithmetic" k2="-1" k3="1"/>
<feColorMatrix type="matrix" values="0 0 0 0 1 0 0 0 0 0.78 0 0 0 0 0 0 0 0 1 0"/>
<feBlend mode="normal" in2="shape" result="effect1_innerShadow_99_136"/>
</filter>
<filter id="filter1_i_99_136" x="0" y="6.51315" width="128.113" height="92.4868" filterUnits="userSpaceOnUse" color-interpolation-filters="sRGB">
<feFlood flood-opacity="0" result="BackgroundImageFix"/>
<feBlend mode="normal" in="SourceGraphic" in2="BackgroundImageFix" result="shape"/>
<feColorMatrix in="SourceAlpha" type="matrix" values="0 0 0 0 0 0 0 0 0 0 0 0 0 0 0 0 0 0 127 0" result="hardAlpha"/>
<feOffset/>
<feGaussianBlur stdDeviation="25"/>
<feComposite in2="hardAlpha" operator="arithmetic" k2="-1" k3="1"/>
<feColorMatrix type="matrix" values="0 0 0 0 0 0 0 0 0 0.639216 0 0 0 0 1 0 0 0 0.2 0"/>
<feBlend mode="normal" in2="shape" result="effect1_innerShadow_99_136"/>
</filter>
</defs>
</svg>
