<svg width="58" height="37" viewBox="0 0 58 37" fill="none" xmlns="http://www.w3.org/2000/svg">
<g id="Toggle" filter="url(#filter0_d_99_38)">
<path fill-rule="evenodd" clip-rule="evenodd" d="M18.5 23C12.701 23 8 18.299 8 12.5C8 6.70101 12.701 2 18.5 2H39.5C45.299 2 50 6.70101 50 12.5C50 18.299 45.299 23 39.5 23H18.5ZM39.4998 20.2C35.2472 20.2 31.7998 16.7526 31.7998 12.5C31.7998 8.24742 35.2472 4.80001 39.4998 4.80001C43.7524 4.80001 47.1998 8.24742 47.1998 12.5C47.1998 16.7526 43.7524 20.2 39.4998 20.2Z" fill="#516F91"/>
</g>
<defs>
<filter id="filter0_d_99_38" x="0" y="0" width="58" height="37" filterUnits="userSpaceOnUse" color-interpolation-filters="sRGB">
<feFlood flood-opacity="0" result="BackgroundImageFix"/>
<feColorMatrix in="SourceAlpha" type="matrix" values="0 0 0 0 0 0 0 0 0 0 0 0 0 0 0 0 0 0 127 0" result="hardAlpha"/>
<feMorphology radius="4" operator="erode" in="SourceAlpha" result="effect1_dropShadow_99_38"/>
<feOffset dy="6"/>
<feGaussianBlur stdDeviation="6"/>
<feComposite in2="hardAlpha" operator="out"/>
<feColorMatrix type="matrix" values="0 0 0 0 0.152941 0 0 0 0 0.298039 0 0 0 0 0.466667 0 0 0 0.16 0"/>
<feBlend mode="normal" in2="BackgroundImageFix" result="effect1_dropShadow_99_38"/>
<feBlend mode="normal" in="SourceGraphic" in2="effect1_dropShadow_99_38" result="shape"/>
</filter>
</defs>
</svg>
