<svg width="60" height="60" viewBox="0 0 60 60" fill="none" xmlns="http://www.w3.org/2000/svg">
<g id="Brands / instagram">
<path id="Vector" d="M30 23.8C28.7738 23.8 27.575 24.1636 26.5555 24.8449C25.5359 25.5262 24.7412 26.4945 24.2719 27.6274C23.8027 28.7603 23.6799 30.0069 23.9191 31.2096C24.1584 32.4122 24.7489 33.517 25.6159 34.3841C26.483 35.2511 27.5878 35.8416 28.7904 36.0809C29.9931 36.3201 31.2397 36.1973 32.3726 35.7281C33.5055 35.2588 34.4738 34.4641 35.1551 33.4445C35.8364 32.425 36.2 31.2262 36.2 30C36.2 29.1858 36.0396 28.3796 35.7281 27.6274C35.4165 26.8751 34.9598 26.1917 34.3841 25.6159C33.8083 25.0402 33.1249 24.5835 32.3726 24.2719C31.6204 23.9604 30.8142 23.8 30 23.8ZM54.825 17.675C54.8118 15.7444 54.4563 13.8314 53.775 12.025C53.2732 10.7031 52.4968 9.50273 51.497 8.50296C50.4973 7.50319 49.2969 6.72679 47.975 6.225C46.1686 5.54366 44.2556 5.18815 42.325 5.175C39.1 5 38.15 5 30 5C21.85 5 20.9 5 17.675 5.175C15.7444 5.18815 13.8314 5.54366 12.025 6.225C10.7031 6.72679 9.50273 7.50319 8.50296 8.50296C7.50319 9.50273 6.72679 10.7031 6.225 12.025C5.54366 13.8314 5.18815 15.7444 5.175 17.675C5 20.9 5 21.85 5 30C5 38.15 5 39.1 5.175 42.325C5.20191 44.2624 5.55694 46.1812 6.225 48C6.72457 49.3158 7.50032 50.5093 8.5 51.5C9.49548 52.5058 10.6985 53.2822 12.025 53.775C13.8314 54.4563 15.7444 54.8118 17.675 54.825C20.9 55 21.85 55 30 55C38.15 55 39.1 55 42.325 54.825C44.2556 54.8118 46.1686 54.4563 47.975 53.775C49.3015 53.2822 50.5045 52.5058 51.5 51.5C52.4997 50.5093 53.2754 49.3158 53.775 48C54.4557 46.1847 54.8111 44.2637 54.825 42.325C55 39.1 55 38.15 55 30C55 21.85 55 20.9 54.825 17.675ZM48.475 37.675C48.3948 39.2178 48.0655 40.7374 47.5 42.175C47.0147 43.3742 46.2932 44.4636 45.3784 45.3784C44.4636 46.2932 43.3742 47.0147 42.175 47.5C40.7238 48.034 39.1957 48.3295 37.65 48.375C35.675 48.375 35.15 48.375 30 48.375C24.85 48.375 24.325 48.375 22.35 48.375C20.8043 48.3295 19.2762 48.034 17.825 47.5C16.5853 47.0393 15.4657 46.3043 14.55 45.35C13.6442 44.4531 12.9446 43.3697 12.5 42.175C11.9639 40.7253 11.6765 39.1954 11.65 37.65C11.65 35.675 11.65 35.15 11.65 30C11.65 24.85 11.65 24.325 11.65 22.35C11.6765 20.8046 11.9639 19.2747 12.5 17.825C12.9607 16.5853 13.6957 15.4657 14.65 14.55C15.5508 13.6491 16.6332 12.9502 17.825 12.5C19.2762 11.966 20.8043 11.6705 22.35 11.625C24.325 11.625 24.85 11.625 30 11.625C35.15 11.625 35.675 11.625 37.65 11.625C39.1957 11.6705 40.7238 11.966 42.175 12.5C43.4147 12.9607 44.5343 13.6957 45.45 14.65C46.3558 15.5469 47.0554 16.6303 47.5 17.825C48.034 19.2762 48.3295 20.8043 48.375 22.35C48.375 24.325 48.375 24.85 48.375 30C48.375 35.15 48.55 35.675 48.475 37.65V37.675ZM44.475 19.075C44.1773 18.2675 43.708 17.5341 43.0995 16.9255C42.4909 16.317 41.7575 15.8477 40.95 15.55C39.8412 15.1657 38.6734 14.9795 37.5 15C35.55 15 35 15 30 15C25 15 24.45 15 22.5 15C21.3207 15.0115 20.1527 15.2316 19.05 15.65C18.2548 15.9341 17.5292 16.3843 16.9215 16.9705C16.3137 17.5567 15.8377 18.2656 15.525 19.05C15.1619 20.1634 14.9846 21.329 15 22.5C15 24.45 15 25 15 30C15 35 15 35.55 15 37.5C15.0248 38.678 15.2444 39.8438 15.65 40.95C15.9477 41.7575 16.417 42.4909 17.0255 43.0995C17.6341 43.708 18.3675 44.1773 19.175 44.475C20.2417 44.8673 21.3641 45.0867 22.5 45.125C24.45 45.125 25 45.125 30 45.125C35 45.125 35.55 45.125 37.5 45.125C38.6793 45.1135 39.8473 44.8934 40.95 44.475C41.7575 44.1773 42.4909 43.708 43.0995 43.0995C43.708 42.4909 44.1773 41.7575 44.475 40.95C44.8934 39.8473 45.1135 38.6793 45.125 37.5C45.125 35.55 45.125 35 45.125 30C45.125 25 45.125 24.45 45.125 22.5C45.1257 21.3195 44.9053 20.1493 44.475 19.05V19.075ZM30 39.55C28.7471 39.55 27.5064 39.3028 26.3492 38.8226C25.1919 38.3423 24.1408 37.6385 23.256 36.7514C22.3711 35.8642 21.6701 34.8113 21.1929 33.6527C20.7157 32.4942 20.4717 31.2529 20.475 30C20.475 28.1101 21.0357 26.2627 22.0862 24.6917C23.1367 23.1207 24.6297 21.8967 26.3762 21.1746C28.1227 20.4525 30.0441 20.2649 31.8973 20.6354C33.7505 21.0059 35.4521 21.9179 36.7867 23.256C38.1213 24.5941 39.0289 26.2981 39.3945 28.1523C39.7602 30.0064 39.5675 31.9274 38.8409 33.672C38.1142 35.4166 36.8863 36.9063 35.3125 37.9527C33.7387 38.9991 31.8899 39.5549 30 39.55ZM40 22.325C39.4474 22.2665 38.9359 22.0056 38.5642 21.5924C38.1925 21.1793 37.9868 20.6432 37.9868 20.0875C37.9868 19.5318 38.1925 18.9957 38.5642 18.5826C38.9359 18.1694 39.4474 17.9085 40 17.85C40.5526 17.9085 41.0641 18.1694 41.4358 18.5826C41.8075 18.9957 42.0132 19.5318 42.0132 20.0875C42.0132 20.6432 41.8075 21.1793 41.4358 21.5924C41.0641 22.0056 40.5526 22.2665 40 22.325Z" fill="#FFC42A"/>
</g>
</svg>
